<svg width="113" height="19" viewBox="0 0 113 19" fill="none" xmlns="http://www.w3.org/2000/svg">
<path d="M7.34766 5.0625V7.14844H0.222656V5.0625H7.34766ZM2.19141 1.88672H4.75781V14.5195C4.75781 15.0273 4.86328 15.3984 5.07422 15.6328C5.28516 15.8672 5.64453 15.9844 6.15234 15.9844C6.30078 15.9844 6.48438 15.9727 6.70312 15.9492C6.92188 15.918 7.10938 15.8906 7.26562 15.8672L7.62891 17.9297C7.36328 18 7.07812 18.0508 6.77344 18.082C6.46875 18.1133 6.16797 18.1289 5.87109 18.1289C4.69141 18.1289 3.78125 17.8398 3.14062 17.2617C2.50781 16.6758 2.19141 15.8398 2.19141 14.7539V1.88672ZM15.1055 18.2695C13.8242 18.2695 12.7227 17.9922 11.8008 17.4375C10.8789 16.8828 10.168 16.1055 9.66797 15.1055C9.17578 14.1055 8.92969 12.9375 8.92969 11.6016C8.92969 10.2812 9.17578 9.11719 9.66797 8.10938C10.1602 7.09375 10.8555 6.30078 11.7539 5.73047C12.6523 5.16016 13.6992 4.875 14.8945 4.875C15.6758 4.875 16.4141 5.00391 17.1094 5.26172C17.8125 5.51953 18.4336 5.91797 18.9727 6.45703C19.5195 6.98828 19.9492 7.66797 20.2617 8.49609C20.5742 9.31641 20.7305 10.293 20.7305 11.4258V12.293H10.2891V10.3711H19.4062L18.2344 10.9922C18.2344 10.2031 18.1055 9.50781 17.8477 8.90625C17.5977 8.29688 17.2227 7.82422 16.7227 7.48828C16.2305 7.15234 15.625 6.98438 14.9062 6.98438C14.1875 6.98438 13.5703 7.15625 13.0547 7.5C12.5469 7.84375 12.1562 8.30078 11.8828 8.87109C11.6094 9.44141 11.4727 10.0781 11.4727 10.7812V12.0352C11.4727 12.9023 11.6211 13.6445 11.918 14.2617C12.2227 14.8789 12.6484 15.3516 13.1953 15.6797C13.75 16 14.3945 16.1602 15.1289 16.1602C15.6211 16.1602 16.0664 16.0898 16.4648 15.9492C16.8633 15.8008 17.2031 15.5859 17.4844 15.3047C17.7656 15.0234 17.9766 14.6797 18.1172 14.2734L20.5312 14.7188C20.3359 15.4219 19.9883 16.043 19.4883 16.582C18.9883 17.1133 18.3633 17.5273 17.6133 17.8242C16.8711 18.1211 16.0352 18.2695 15.1055 18.2695ZM28.8633 18.2695C27.6523 18.2695 26.5898 17.9922 25.6758 17.4375C24.7695 16.875 24.0625 16.0938 23.5547 15.0938C23.0547 14.0859 22.8047 12.918 22.8047 11.5898C22.8047 10.2461 23.0547 9.07031 23.5547 8.0625C24.0625 7.05469 24.7695 6.27344 25.6758 5.71875C26.5898 5.15625 27.6523 4.875 28.8633 4.875C29.5586 4.875 30.207 4.96875 30.8086 5.15625C31.4102 5.33594 31.9492 5.60156 32.4258 5.95312C32.9102 6.29688 33.3125 6.71875 33.6328 7.21875C33.9609 7.71094 34.1953 8.26562 34.3359 8.88281L31.8867 9.33984C31.8086 8.99609 31.6797 8.68359 31.5 8.40234C31.3281 8.12109 31.1133 7.87891 30.8555 7.67578C30.6055 7.47266 30.3125 7.31641 29.9766 7.20703C29.6484 7.09766 29.2852 7.04297 28.8867 7.04297C28.1133 7.04297 27.4688 7.24609 26.9531 7.65234C26.4375 8.05078 26.0508 8.59375 25.793 9.28125C25.5352 9.96094 25.4062 10.7305 25.4062 11.5898C25.4062 12.4336 25.5352 13.1953 25.793 13.875C26.0508 14.5547 26.4336 15.0977 26.9414 15.5039C27.457 15.9023 28.1055 16.1016 28.8867 16.1016C29.293 16.1016 29.6641 16.0469 30 15.9375C30.3359 15.8203 30.6289 15.6602 30.8789 15.457C31.1367 15.2461 31.3516 14.9961 31.5234 14.707C31.7031 14.4102 31.8359 14.0859 31.9219 13.7344L34.3594 14.1797C34.2266 14.8125 33.9961 15.3789 33.668 15.8789C33.3398 16.3789 32.9336 16.8086 32.4492 17.168C31.9727 17.5273 31.4297 17.8008 30.8203 17.9883C30.2188 18.1758 29.5664 18.2695 28.8633 18.2695ZM39.5859 10.3828V18H37.0195V0.539062H39.5625V8.23828H39.1641C39.5469 7.08203 40.1016 6.23438 40.8281 5.69531C41.5547 5.14844 42.4336 4.875 43.4648 4.875C44.3477 4.875 45.1211 5.0625 45.7852 5.4375C46.457 5.8125 46.9805 6.36719 47.3555 7.10156C47.7383 7.82812 47.9297 8.73047 47.9297 9.80859V18H45.3633V10.125C45.3633 9.17188 45.1172 8.43359 44.625 7.91016C44.1406 7.37891 43.4727 7.11328 42.6211 7.11328C42.043 7.11328 41.5234 7.23828 41.0625 7.48828C40.6016 7.73828 40.2383 8.10547 39.9727 8.58984C39.7148 9.07422 39.5859 9.67188 39.5859 10.3828Z" fill="white"/>
<path d="M57.7031 18.2578C56.9688 18.2578 56.3516 18.1367 55.8516 17.8945C55.3594 17.6445 54.957 17.3477 54.6445 17.0039C54.3398 16.6523 54.0977 16.3125 53.918 15.9844H53.7422V18H51.2461V0.539062H53.8125V7.11328H53.9297C54.1016 6.80078 54.3398 6.47266 54.6445 6.12891C54.9492 5.78516 55.3477 5.49219 55.8398 5.25C56.332 5 56.9531 4.875 57.7031 4.875C58.7656 4.875 59.7031 5.14453 60.5156 5.68359C61.3359 6.21484 61.9805 6.98047 62.4492 7.98047C62.918 8.97266 63.1523 10.1641 63.1523 11.5547C63.1523 12.9375 62.918 14.1289 62.4492 15.1289C61.9883 16.1289 61.3477 16.9023 60.5273 17.4492C59.7148 17.9883 58.7734 18.2578 57.7031 18.2578ZM57.1523 16.0781C57.8789 16.0781 58.4961 15.8828 59.0039 15.4922C59.5117 15.1016 59.8945 14.5664 60.1523 13.8867C60.418 13.1992 60.5508 12.418 60.5508 11.543C60.5508 10.6602 60.418 9.88281 60.1523 9.21094C59.8945 8.53906 59.5117 8.01172 59.0039 7.62891C58.5039 7.24609 57.8867 7.05469 57.1523 7.05469C56.418 7.05469 55.7969 7.24219 55.2891 7.61719C54.7812 7.99219 54.3945 8.51562 54.1289 9.1875C53.8711 9.85156 53.7422 10.6367 53.7422 11.543C53.7422 12.4414 53.875 13.2305 54.1406 13.9102C54.4062 14.5898 54.793 15.1211 55.3008 15.5039C55.8164 15.8867 56.4336 16.0781 57.1523 16.0781ZM69.7734 18.2695C68.9453 18.2695 68.1992 18.1211 67.5352 17.8242C66.8711 17.5195 66.3438 17.0742 65.9531 16.4883C65.5703 15.9023 65.3789 15.1836 65.3789 14.332C65.3789 13.5977 65.5195 12.9961 65.8008 12.5273C66.0898 12.0508 66.4727 11.6758 66.9492 11.4023C67.4258 11.1289 67.9609 10.9219 68.5547 10.7812C69.1562 10.6406 69.7695 10.5352 70.3945 10.4648C71.168 10.3711 71.7891 10.293 72.2578 10.2305C72.7344 10.168 73.082 10.0703 73.3008 9.9375C73.5273 9.80469 73.6406 9.58594 73.6406 9.28125V9.21094C73.6406 8.73438 73.5469 8.33203 73.3594 8.00391C73.1719 7.66797 72.8906 7.41016 72.5156 7.23047C72.1406 7.05078 71.6797 6.96094 71.1328 6.96094C70.5781 6.96094 70.0977 7.05078 69.6914 7.23047C69.2852 7.40234 68.9531 7.62891 68.6953 7.91016C68.4453 8.18359 68.2695 8.47656 68.168 8.78906L65.7422 8.30859C65.9844 7.51953 66.3672 6.875 66.8906 6.375C67.4219 5.86719 68.0508 5.49219 68.7773 5.25C69.5039 5 70.2812 4.875 71.1094 4.875C71.6875 4.875 72.2734 4.94531 72.8672 5.08594C73.4688 5.22656 74.0195 5.46484 74.5195 5.80078C75.0273 6.13672 75.4336 6.59375 75.7383 7.17188C76.043 7.75 76.1953 8.47656 76.1953 9.35156V18H73.7109V16.2188H73.6055C73.4336 16.5547 73.1836 16.8789 72.8555 17.1914C72.5273 17.5039 72.1094 17.7617 71.6016 17.9648C71.0938 18.168 70.4844 18.2695 69.7734 18.2695ZM70.3359 16.2188C71.0469 16.2188 71.6484 16.082 72.1406 15.8086C72.6328 15.5352 73.0078 15.1758 73.2656 14.7305C73.5234 14.2852 73.6523 13.8086 73.6523 13.3008V11.6719C73.5664 11.7578 73.3984 11.8359 73.1484 11.9062C72.8984 11.9766 72.6133 12.043 72.293 12.1055C71.9727 12.1602 71.6562 12.2109 71.3438 12.2578C71.0312 12.2969 70.7578 12.332 70.5234 12.3633C70.0547 12.4258 69.6172 12.5312 69.2109 12.6797C68.8125 12.8203 68.4922 13.0273 68.25 13.3008C68.0156 13.5664 67.8984 13.9219 67.8984 14.3672C67.8984 14.7734 68 15.1133 68.2031 15.3867C68.4141 15.6602 68.7031 15.8672 69.0703 16.0078C69.4375 16.1484 69.8594 16.2188 70.3359 16.2188ZM79.2305 18V16.2422L86.1797 7.38281V7.27734H79.4062V5.0625H89.3555V6.94922L82.6406 15.6797V15.7852H89.5547V18H79.2305ZM96.2812 18.2695C95.4531 18.2695 94.707 18.1211 94.043 17.8242C93.3789 17.5195 92.8516 17.0742 92.4609 16.4883C92.0781 15.9023 91.8867 15.1836 91.8867 14.332C91.8867 13.5977 92.0273 12.9961 92.3086 12.5273C92.5977 12.0508 92.9805 11.6758 93.457 11.4023C93.9336 11.1289 94.4688 10.9219 95.0625 10.7812C95.6641 10.6406 96.2773 10.5352 96.9023 10.4648C97.6758 10.3711 98.2969 10.293 98.7656 10.2305C99.2422 10.168 99.5898 10.0703 99.8086 9.9375C100.035 9.80469 100.148 9.58594 100.148 9.28125V9.21094C100.148 8.73438 100.055 8.33203 99.8672 8.00391C99.6797 7.66797 99.3984 7.41016 99.0234 7.23047C98.6484 7.05078 98.1875 6.96094 97.6406 6.96094C97.0859 6.96094 96.6055 7.05078 96.1992 7.23047C95.793 7.40234 95.4609 7.62891 95.2031 7.91016C94.9531 8.18359 94.7773 8.47656 94.6758 8.78906L92.25 8.30859C92.4922 7.51953 92.875 6.875 93.3984 6.375C93.9297 5.86719 94.5586 5.49219 95.2852 5.25C96.0117 5 96.7891 4.875 97.6172 4.875C98.1953 4.875 98.7812 4.94531 99.375 5.08594C99.9766 5.22656 100.527 5.46484 101.027 5.80078C101.535 6.13672 101.941 6.59375 102.246 7.17188C102.551 7.75 102.703 8.47656 102.703 9.35156V18H100.219V16.2188H100.113C99.9414 16.5547 99.6914 16.8789 99.3633 17.1914C99.0352 17.5039 98.6172 17.7617 98.1094 17.9648C97.6016 18.168 96.9922 18.2695 96.2812 18.2695ZM96.8438 16.2188C97.5547 16.2188 98.1562 16.082 98.6484 15.8086C99.1406 15.5352 99.5156 15.1758 99.7734 14.7305C100.031 14.2852 100.16 13.8086 100.16 13.3008V11.6719C100.074 11.7578 99.9062 11.8359 99.6562 11.9062C99.4062 11.9766 99.1211 12.043 98.8008 12.1055C98.4805 12.1602 98.1641 12.2109 97.8516 12.2578C97.5391 12.2969 97.2656 12.332 97.0312 12.3633C96.5625 12.4258 96.125 12.5312 95.7188 12.6797C95.3203 12.8203 95 13.0273 94.7578 13.3008C94.5234 13.5664 94.4062 13.9219 94.4062 14.3672C94.4062 14.7734 94.5078 15.1133 94.7109 15.3867C94.9219 15.6602 95.2109 15.8672 95.5781 16.0078C95.9453 16.1484 96.3672 16.2188 96.8438 16.2188ZM106.02 18V5.0625H108.492V7.13672H108.609C108.852 6.43359 109.258 5.88281 109.828 5.48438C110.406 5.08594 111.082 4.88672 111.855 4.88672C112.027 4.88672 112.211 4.89453 112.406 4.91016C112.609 4.91797 112.777 4.92969 112.91 4.94531V7.37109C112.816 7.34766 112.637 7.32031 112.371 7.28906C112.113 7.25781 111.844 7.24219 111.562 7.24219C111 7.24219 110.492 7.36328 110.039 7.60547C109.586 7.84766 109.23 8.19141 108.973 8.63672C108.715 9.07422 108.586 9.58984 108.586 10.1836V18H106.02Z" fill="#F72585"/>
</svg>
